# xmcd
#
# Track frame offsets:
#	150
#	11632
#	23657
#	33860
#	49187
#	61767
#	78145
#	90877
#	108477
#	125145
#	141875
#	156765
#	167387
#	182490
#	197120
#	212782
#	232695
#	247887
#	260012
#	271137
#	283115
#	297145
#	308760
#
# Disc length: 4376
#
# Revision: 1
# Processed by: cddbd v1.5.1PL0 Copyright (c) Steve Scherf et al.
# Submitted via: EasyCDDAExtractor 5.0.5.1
# Normalized: r0:DSETVAR1
#
DISCID=2c111617
DTITLE=Various Artist - Honeysuckle Rose
DYEAR=1980
DGENRE=Country
TTITLE0=Willie Nelson - On The Road Again
TTITLE1=Willie Nelson - Pick Up The Tempo (Live)
TTITLE2=Willie Nelson - Heaven Or Hell (Live)
TTITLE3=Jody Payne - Fiddlin' Around (Live)
TTITLE4=Willie Nelson - Blue Eyes Crying In The Rain (Live)
TTITLE5=Jody Payne - Working Man Blues (Live)
TTITLE6=Johnny Gimble - Jumpin' Cotton Eyed Joe (Live)
TTITLE7=Willie Nelson - Whiskey River
TTITLE8=Willie Nelson - Bloody Mary Morning (Live)
TTITLE9=Willie Nelson - Loving You Was Easier (Than Anything I'll Ever Do Again) (Live)
TTITLE10=Hank Cochran - I Don't Do Windows (Live)
TTITLE11=Kenneth Threadgill - Coming Back To Texas (Live)
TTITLE12=Willie Nelson - It's Not Supposed To Be That Way (Live)
TTITLE13=Willie Nelson - You Show Me Yours (And I'll Show You Mine) (Live)
TTITLE14=Willie Nelson - If You Could Touch Her At All
TTITLE15=Willie Nelson - Angel Flying Too Close To The Ground (Live)
TTITLE16=Willie Nelson - I Guess I've Come To Live Here In Your Eyes (Live)
TTITLE17=Willie Nelson - Angel Eyes (Live)
TTITLE18=Emmylou Harris - So You Think You're A Cowboy (Live)
TTITLE19=Hank Cochran - Make The World Go Away (Live)
TTITLE20=Dyan Cannon - Two Sides To Every Story (Live)
TTITLE21=Willie Nelson - A Song For You (Live)
TTITLE22=Willie Nelson - Uncloudy Day (Live)
EXTD=
EXTT0=Willie Nelson
EXTT1=Willie Nelson
EXTT2=Willie Nelson
EXTT3=Johnny Gimble
EXTT4=Willie Nelson
EXTT5=Jody Payne
EXTT6=Johnny Gimble
EXTT7=Willie Nelson
EXTT8=Willie Nelson
EXTT9=Willie Nelson/Dyan Cannon
EXTT10=Hank Cochran
EXTT11=Kenneth Threadgill
EXTT12=Willie Nelson
EXTT13=Willie Nelson/Amy Irving
EXTT14=Willie Nelson
EXTT15=Willie Nelson
EXTT16=Willie Nelson
EXTT17=Willie Nelson/Emmylou Harris
EXTT18=Emmylou Harris
EXTT19=Hank Cochran/Jeannie Seely
EXTT20=Dyan Cannon
EXTT21=Willie Nelson
EXTT22=Willie Nelson/Dyan Cannon
PLAYORDER=
